<svg width="1024" height="634" viewBox="0 0 1024 634" fill="none" xmlns="http://www.w3.org/2000/svg">
<path d="M67.96 129H2.872V0.359997H67.96C110.392 0.359997 137.272 23.976 137.272 64.68C137.272 105.384 110.392 129 67.96 129ZM67.96 32.808H38.968V96.552H67.96C90.808 96.552 98.68 93.672 98.68 64.68C98.68 35.688 90.808 32.808 67.96 32.808ZM200.775 130.92C167.943 130.92 144.903 116.904 144.903 80.616C144.903 49.128 167.751 30.312 200.007 30.312C233.415 30.312 254.727 47.016 254.727 78.12C254.727 81.384 254.535 83.88 254.151 87.336H178.311C178.887 99.048 184.071 102.312 199.431 102.312C214.023 102.312 217.863 99.816 217.863 94.056V91.944H253.958V94.248C253.958 115.752 233.415 130.92 200.775 130.92ZM199.239 57.96C185.991 57.96 180.423 60.84 178.887 69.096H219.783C218.439 60.84 212.679 57.96 199.239 57.96ZM316.417 130.92C282.241 130.92 264.001 117.672 264.001 95.4V94.632H300.097V96.552C300.097 101.928 303.553 102.504 316.609 102.504C329.089 102.504 331.009 101.16 331.009 97.896C331.009 94.824 329.473 94.056 320.449 93.096L292.417 90.024C272.449 87.912 261.697 78.504 261.697 62.184C261.697 45.096 275.329 30.312 311.617 30.312C345.217 30.312 363.073 42.408 363.073 66.216V66.984H326.977V65.832C326.977 60.84 325.057 58.536 310.465 58.536C298.753 58.536 297.217 60.072 297.217 63.72C297.217 66.408 298.753 67.752 310.081 68.904L329.281 71.016C357.505 74.088 366.529 83.496 366.529 99.816C366.529 117.864 348.481 130.92 316.417 130.92ZM406.494 130.92C384.606 130.92 372.318 120.936 372.318 104.424C372.318 90.792 381.726 81 403.614 78.888L442.974 75.048V73.128C442.974 63.336 438.75 61.8 425.885 61.8C413.982 61.8 410.334 64.104 410.334 72.168V72.936H374.238V72.552C374.238 46.824 395.742 30.312 428.574 30.312C462.366 30.312 478.686 46.824 478.686 73.896V129H444.894V108.648H442.974C439.326 122.28 427.422 130.92 406.494 130.92ZM408.606 102.12C408.606 105.192 411.678 105.768 417.246 105.768C434.718 105.768 441.822 103.656 442.782 95.016L413.214 98.472C409.95 98.856 408.606 100.008 408.606 102.12ZM525.481 129H489.385V32.232H523.177V57.576H525.097C527.785 41.64 537.769 30.312 556.969 30.312C578.281 30.312 586.729 44.328 586.729 63.72V82.92H550.633V71.592C550.633 63.528 547.561 60.648 538.153 60.648C528.361 60.648 525.481 63.528 525.481 71.208V129ZM630.481 129H594.385V32.232H628.177V57.576H630.097C632.785 41.64 642.769 30.312 661.969 30.312C683.281 30.312 691.729 44.328 691.729 63.72V82.92H655.633V71.592C655.633 63.528 652.561 60.648 643.153 60.648C633.361 60.648 630.481 63.528 630.481 71.208V129ZM752.953 130.92C719.353 130.92 696.505 111.912 696.505 80.616C696.505 49.128 719.353 30.312 752.953 30.312C786.553 30.312 809.401 49.128 809.401 80.616C809.401 111.912 786.553 130.92 752.953 130.92ZM752.953 99.048C769.273 99.048 773.689 94.632 773.689 80.616C773.689 66.6 769.273 61.992 752.953 61.992C736.633 61.992 732.217 66.6 732.217 80.616C732.217 94.632 736.633 99.048 752.953 99.048ZM854.169 129H818.073V0.359997H854.169V129ZM901.794 129H865.698V0.359997H901.794V129ZM966.891 130.92C933.291 130.92 910.443 111.912 910.443 80.616C910.443 49.128 933.291 30.312 966.891 30.312C1000.49 30.312 1023.34 49.128 1023.34 80.616C1023.34 111.912 1000.49 130.92 966.891 130.92ZM966.891 99.048C983.211 99.048 987.627 94.632 987.627 80.616C987.627 66.6 983.211 61.992 966.891 61.992C950.571 61.992 946.155 66.6 946.155 80.616C946.155 94.632 950.571 99.048 966.891 99.048ZM67.96 365H2.872V236.36H67.96C110.392 236.36 137.272 259.976 137.272 300.68C137.272 341.384 110.392 365 67.96 365ZM67.96 268.808H38.968V332.552H67.96C90.808 332.552 98.68 329.672 98.68 300.68C98.68 271.688 90.808 268.808 67.96 268.808ZM182.919 259.4H146.823V236.36H182.919V259.4ZM182.919 365H146.823V268.232H182.919V365ZM246.48 366.92C212.304 366.92 194.064 353.672 194.064 331.4V330.632H230.16V332.552C230.16 337.928 233.616 338.504 246.672 338.504C259.152 338.504 261.072 337.16 261.072 333.896C261.072 330.824 259.536 330.056 250.512 329.096L222.48 326.024C202.512 323.912 191.76 314.504 191.76 298.184C191.76 281.096 205.392 266.312 241.68 266.312C275.28 266.312 293.136 278.408 293.136 302.216V302.984H257.04V301.832C257.04 296.84 255.12 294.536 240.528 294.536C228.816 294.536 227.28 296.072 227.28 299.72C227.28 302.408 228.816 303.752 240.144 304.904L259.344 307.016C287.568 310.088 296.592 319.496 296.592 335.816C296.592 353.864 278.544 366.92 246.48 366.92ZM359.212 366.92C326.38 366.92 303.34 352.904 303.34 316.616C303.34 285.128 326.188 266.312 358.444 266.312C391.852 266.312 413.164 283.016 413.164 314.12C413.164 317.384 412.972 319.88 412.588 323.336H336.748C337.324 335.048 342.508 338.312 357.868 338.312C372.46 338.312 376.3 335.816 376.3 330.056V327.944H412.396V330.248C412.396 351.752 391.852 366.92 359.212 366.92ZM357.676 293.96C344.428 293.96 338.86 296.84 337.324 305.096H378.22C376.876 296.84 371.116 293.96 357.676 293.96ZM463.527 260.936H439.527V251.336C439.527 241.352 442.406 229.64 459.495 229.64C463.719 229.64 469.287 230.792 476.391 233.288L482.919 235.592C486.183 236.744 488.679 237.512 490.599 237.512C493.479 237.512 494.823 236.168 494.823 232.712V231.368H518.631V240.776C518.631 253.448 513.255 262.664 500.199 262.664C494.247 262.664 488.295 260.936 482.727 259.016L473.895 256.136C470.631 254.984 468.327 254.408 466.791 254.408C464.103 254.408 463.527 256.136 463.527 257.864V260.936ZM458.919 365H422.823V268.232H456.615V297.608H458.535C460.647 281.48 471.207 266.312 497.127 266.312C523.239 266.312 535.527 282.056 535.527 302.984V365H499.431V316.232C499.431 302.792 494.439 298.568 478.695 298.568C462.759 298.568 458.919 302.6 458.919 315.08V365ZM599.766 366.92C566.166 366.92 543.318 347.912 543.318 316.616C543.318 285.128 566.166 266.312 599.766 266.312C633.366 266.312 656.214 285.128 656.214 316.616C656.214 347.912 633.366 366.92 599.766 366.92ZM599.766 335.048C616.086 335.048 620.502 330.632 620.502 316.616C620.502 302.6 616.086 297.992 599.766 297.992C583.446 297.992 579.03 302.6 579.03 316.616C579.03 330.632 583.446 335.048 599.766 335.048ZM36.856 601H0.76V472.36H71.992C102.52 472.36 121.72 489.832 121.72 520.36C121.72 550.888 102.52 568.552 71.992 568.552H36.856V601ZM67.96 504.808H36.856V536.104H67.96C80.632 536.104 85.816 533.608 85.816 520.36C85.816 507.304 80.632 504.808 67.96 504.808ZM165.481 601H129.385V504.232H163.177V529.576H165.097C167.785 513.64 177.769 502.312 196.969 502.312C218.281 502.312 226.729 516.328 226.729 535.72V554.92H190.633V543.592C190.633 535.528 187.561 532.648 178.153 532.648C168.361 532.648 165.481 535.528 165.481 543.208V601ZM287.953 602.92C254.353 602.92 231.505 583.912 231.505 552.616C231.505 521.128 254.353 502.312 287.953 502.312C321.553 502.312 344.401 521.128 344.401 552.616C344.401 583.912 321.553 602.92 287.953 602.92ZM287.953 571.048C304.273 571.048 308.689 566.632 308.689 552.616C308.689 538.6 304.273 533.992 287.953 533.992C271.633 533.992 267.217 538.6 267.217 552.616C267.217 566.632 271.633 571.048 287.953 571.048ZM425.457 601H400.113C375.921 601 361.521 589.288 361.521 564.136V533.8H347.312V504.232H361.521V487.528H397.617V504.232H425.457V533.8H397.617V558.952C397.617 566.632 399.921 568.552 408.177 568.552H425.457V601ZM487.641 602.92C454.041 602.92 431.193 583.912 431.193 552.616C431.193 521.128 454.041 502.312 487.641 502.312C521.241 502.312 544.089 521.128 544.089 552.616C544.089 583.912 521.241 602.92 487.641 602.92ZM487.641 571.048C503.961 571.048 508.377 566.632 508.377 552.616C508.377 538.6 503.961 533.992 487.641 533.992C471.321 533.992 466.905 538.6 466.905 552.616C466.905 566.632 471.321 571.048 487.641 571.048ZM625.144 601H599.8C575.608 601 561.208 589.288 561.208 564.136V533.8H547V504.232H561.208V487.528H597.304V504.232H625.144V533.8H597.304V558.952C597.304 566.632 599.608 568.552 607.864 568.552H625.144V601ZM669.856 495.4H633.76V472.36H669.856V495.4ZM669.856 601H633.76V504.232H669.856V601ZM717.481 633.64H681.385V504.232H715.177V530.344H717.097C720.169 511.144 731.689 502.312 754.345 502.312C783.913 502.312 800.233 521.32 800.233 552.616C800.233 584.104 784.297 602.92 755.881 602.92C733.033 602.92 722.281 592.168 719.401 576.04H717.481V633.64ZM717.481 553.768C717.481 567.4 725.161 570.088 741.289 570.088C757.993 570.088 763.753 565.48 763.753 552.616C763.753 539.752 757.993 535.336 741.289 535.336C725.161 535.336 717.481 538.408 717.481 552.424V553.768ZM863.391 602.92C829.791 602.92 806.943 583.912 806.943 552.616C806.943 521.128 829.791 502.312 863.391 502.312C896.991 502.312 919.839 521.128 919.839 552.616C919.839 583.912 896.991 602.92 863.391 602.92ZM863.391 571.048C879.711 571.048 884.127 566.632 884.127 552.616C884.127 538.6 879.711 533.992 863.391 533.992C847.071 533.992 842.655 538.6 842.655 552.616C842.655 566.632 847.071 571.048 863.391 571.048Z" fill="#F2F2F2"/>
</svg>
